<svg width="10" height="11" viewBox="0 0 10 11" fill="none" xmlns="http://www.w3.org/2000/svg">
<path d="M1 2.77783H1.88889H9" stroke="#958F8F" stroke-width="0.888889" stroke-linecap="round" stroke-linejoin="round"/>
<path d="M8.11111 2.77778V9C8.11111 9.23575 8.01746 9.46184 7.85076 9.62854C7.68406 9.79524 7.45797 9.88889 7.22222 9.88889H2.77777C2.54203 9.88889 2.31593 9.79524 2.14923 9.62854C1.98254 9.46184 1.88889 9.23575 1.88889 9V2.77778M3.22222 2.77778V1.88889C3.22222 1.65314 3.31587 1.42705 3.48257 1.26035C3.64927 1.09365 3.87536 1 4.11111 1H5.88889C6.12463 1 6.35073 1.09365 6.51742 1.26035C6.68412 1.42705 6.77777 1.65314 6.77777 1.88889V2.77778" stroke="#958F8F" stroke-width="0.888889" stroke-linecap="round" stroke-linejoin="round"/>
<path d="M4.11111 5V7.66667" stroke="#958F8F" stroke-width="0.888889" stroke-linecap="round" stroke-linejoin="round"/>
<path d="M5.88889 5V7.66667" stroke="#958F8F" stroke-width="0.888889" stroke-linecap="round" stroke-linejoin="round"/>
</svg>
