<svg width="26" height="26" viewBox="0 0 26 26" fill="none" xmlns="http://www.w3.org/2000/svg">
<circle cx="13" cy="13" r="13" fill="#2B314E"/>
<path d="M18.375 10.2392C16.5713 10.0604 14.7567 9.96833 12.9475 9.96833C11.875 9.96833 10.8025 10.0225 9.73 10.1308L8.625 10.2392M11.6042 9.69208L11.7233 8.98249C11.81 8.46791 11.875 8.08333 12.7904 8.08333H14.2096C15.125 8.08333 15.1954 8.48958 15.2767 8.98791L15.3958 9.69208M17.2104 11.9508L16.8583 17.4054C16.7988 18.2558 16.75 18.9167 15.2388 18.9167H11.7613C10.25 18.9167 10.2013 18.2558 10.1417 17.4054L9.78958 11.9508M12.5954 15.9375H14.3992M12.1458 13.7708H14.8542" stroke="white" stroke-width="0.8125" stroke-linecap="round" stroke-linejoin="round"/>
</svg>
