<svg width="26" height="26" viewBox="0 0 26 26" fill="none" xmlns="http://www.w3.org/2000/svg">
<circle cx="13" cy="13" r="13" fill="#F2841E"/>
<path d="M17.6527 10.9422H12.9796C12.4061 10.9422 11.9412 11.4072 11.9412 11.9807V16.6538C11.9412 17.2273 12.4061 17.6922 12.9796 17.6922H17.6527C18.2262 17.6922 18.6912 17.2273 18.6912 16.6538V11.9807C18.6912 11.4072 18.2262 10.9422 17.6527 10.9422Z" stroke="white" stroke-linecap="round" stroke-linejoin="round"/>
<path d="M9.86537 14.0577H9.34614C9.07072 14.0577 8.80659 13.9483 8.61184 13.7535C8.41709 13.5588 8.30768 13.2946 8.30768 13.0192V8.34616C8.30768 8.07074 8.41709 7.8066 8.61184 7.61185C8.80659 7.4171 9.07072 7.30769 9.34614 7.30769H14.0192C14.2946 7.30769 14.5588 7.4171 14.7535 7.61185C14.9483 7.8066 15.0577 8.07074 15.0577 8.34616V8.86539" stroke="white" stroke-linecap="round" stroke-linejoin="round"/>
</svg>
