<svg width="10" height="10" viewBox="0 0 10 10" fill="none" xmlns="http://www.w3.org/2000/svg">
<path d="M7.08334 1.24996C7.19278 1.14053 7.3227 1.05372 7.46568 0.994494C7.60866 0.935268 7.76191 0.904785 7.91668 0.904785C8.07144 0.904785 8.22469 0.935268 8.36767 0.994494C8.51066 1.05372 8.64058 1.14053 8.75001 1.24996C8.85945 1.3594 8.94625 1.48932 9.00548 1.6323C9.06471 1.77528 9.09519 1.92853 9.09519 2.0833C9.09519 2.23806 9.06471 2.39131 9.00548 2.53429C8.94625 2.67728 8.85945 2.8072 8.75001 2.91663L3.12501 8.54163L0.833344 9.16663L1.45834 6.87496L7.08334 1.24996Z" stroke="#958F8F" stroke-width="0.833333" stroke-linecap="round" stroke-linejoin="round"/>
</svg>
