<svg width="26" height="26" viewBox="0 0 26 26" fill="none" xmlns="http://www.w3.org/2000/svg">
<circle cx="13" cy="13" r="13" fill="#F38616"/>
<path d="M15.5649 8.4178C15.6974 8.28534 15.8546 8.18027 16.0277 8.10858C16.2007 8.0369 16.3862 8 16.5735 8C16.7609 8 16.9464 8.0369 17.1194 8.10858C17.2925 8.18027 17.4497 8.28534 17.5822 8.4178C17.7147 8.55026 17.8197 8.70751 17.8914 8.88057C17.9631 9.05364 18 9.23913 18 9.42645C18 9.61377 17.9631 9.79926 17.8914 9.97233C17.8197 10.1454 17.7147 10.3026 17.5822 10.4351L10.7738 17.2435L8 18L8.75649 15.2262L15.5649 8.4178Z" stroke="white" stroke-width="1.5" stroke-linecap="round" stroke-linejoin="round"/>
</svg>
