<svg width="21" height="19" viewBox="0 0 21 19" fill="none" xmlns="http://www.w3.org/2000/svg">
<path d="M10.2 6.99989L12.6078 7H19.2927C19.6413 7 19.7864 7.44612 19.5044 7.65117L14.3074 11.4299C14.1813 11.5215 14.1286 11.6839 14.1767 11.8322L16.1617 17.9459C16.2694 18.2776 15.8896 18.5533 15.6076 18.3482L10.4117 14.5703C10.2855 14.4785 10.1145 14.4785 9.98825 14.5703L4.79237 18.3482C4.51029 18.5533 4.13056 18.2776 4.23826 17.9459L6.2232 11.8322C6.27134 11.6839 6.21859 11.5215 6.09251 11.4299L0.895568 7.65117C0.61356 7.44612 0.758604 7 1.10728 7H7.79208L10.2 6.99989Z" fill="#393939"/>
<circle cx="9.79412" cy="2.79412" r="2.79412" fill="#393939"/>
</svg>
