<svg width="10" height="10" viewBox="0 0 10 10" fill="none" xmlns="http://www.w3.org/2000/svg">
<path d="M7.08325 1.25002C7.19269 1.14059 7.32261 1.05378 7.46559 0.994555C7.60857 0.935329 7.76182 0.904846 7.91659 0.904846C8.07135 0.904846 8.2246 0.935329 8.36758 0.994555C8.51057 1.05378 8.64048 1.14059 8.74992 1.25002C8.85935 1.35946 8.94616 1.48938 9.00539 1.63236C9.06461 1.77534 9.0951 1.92859 9.0951 2.08336C9.0951 2.23812 9.06461 2.39137 9.00539 2.53435C8.94616 2.67734 8.85935 2.80726 8.74992 2.91669L3.12492 8.54169L0.833252 9.16669L1.45825 6.87502L7.08325 1.25002Z" stroke="black" stroke-width="0.833333" stroke-linecap="round" stroke-linejoin="round"/>
</svg>
