<svg width="26" height="26" viewBox="0 0 26 26" fill="none" xmlns="http://www.w3.org/2000/svg">
<circle cx="13" cy="13" r="13" fill="#ED2449"/>
<path d="M18 10.2111C16.15 10.0278 14.2889 9.93333 12.4333 9.93333C11.3333 9.93333 10.2333 9.98889 9.13333 10.1L8 10.2111M11.0556 9.65L11.1778 8.92222C11.2667 8.39444 11.3333 8 12.2722 8H13.7278C14.6667 8 14.7389 8.41667 14.8222 8.92778L14.9444 9.65M16.8056 11.9667L16.4444 17.5611C16.3833 18.4333 16.3333 19.1111 14.7833 19.1111H11.2167C9.66667 19.1111 9.61667 18.4333 9.55556 17.5611L9.19444 11.9667M12.0722 16.0556H13.9222M11.6111 13.8333H14.3889" stroke="white" stroke-width="0.833333" stroke-linecap="round" stroke-linejoin="round"/>
</svg>
