<svg width="21" height="21" viewBox="0 0 21 21" fill="none" xmlns="http://www.w3.org/2000/svg">
<path d="M15.1706 9.10406V12.4791C15.1706 12.6984 15.1622 12.9094 15.1369 13.1119C14.9428 15.39 13.6012 16.5206 11.1291 16.5206H10.7916C10.5806 16.5206 10.3781 16.6219 10.2516 16.7906L9.23906 18.1406C8.79187 18.7397 8.06625 18.7397 7.61906 18.1406L6.60656 16.7906C6.53902 16.712 6.45648 16.6476 6.36376 16.6012C6.27104 16.5549 6.17 16.5275 6.06656 16.5206H5.72906C3.0375 16.5206 1.6875 15.8541 1.6875 12.4791V9.10406C1.6875 6.63187 2.82656 5.29031 5.09625 5.09625C5.29875 5.07094 5.50969 5.0625 5.72906 5.0625H11.1291C13.8206 5.0625 15.1706 6.4125 15.1706 9.10406Z" stroke="white" stroke-width="1.2" stroke-miterlimit="10" stroke-linecap="round" stroke-linejoin="round"/>
<path d="M18.5456 5.72906V9.10406C18.5456 11.5847 17.4065 12.9178 15.1368 13.1119C15.1621 12.9094 15.1706 12.6984 15.1706 12.4791V9.10406C15.1706 6.4125 13.8206 5.0625 11.129 5.0625H5.729C5.50963 5.0625 5.29869 5.07094 5.09619 5.09625C5.29025 2.82656 6.63182 1.6875 9.104 1.6875H14.504C17.1956 1.6875 18.5456 3.0375 18.5456 5.72906Z" stroke="white" stroke-width="1.2" stroke-miterlimit="10" stroke-linecap="round" stroke-linejoin="round"/>
<path d="M11.3862 11.1797H11.3947M8.43311 11.1797H8.44154M5.47998 11.1797H5.48842" stroke="white" stroke-width="2.25" stroke-linecap="round" stroke-linejoin="round"/>
</svg>
