<svg width="26" height="26" viewBox="0 0 26 26" fill="none" xmlns="http://www.w3.org/2000/svg">
<circle cx="13" cy="13" r="13" fill="#7C7C7C"/>
<path d="M13.5 14C13.9487 14 14.3125 13.5523 14.3125 13C14.3125 12.4477 13.9487 12 13.5 12C13.0513 12 12.6875 12.4477 12.6875 13C12.6875 13.5523 13.0513 14 13.5 14Z" stroke="white" stroke-width="2" stroke-linecap="round" stroke-linejoin="round"/>
<path d="M19.1875 14C19.6362 14 20 13.5523 20 13C20 12.4477 19.6362 12 19.1875 12C18.7388 12 18.375 12.4477 18.375 13C18.375 13.5523 18.7388 14 19.1875 14Z" stroke="white" stroke-width="2" stroke-linecap="round" stroke-linejoin="round"/>
<path d="M7.8125 14C8.26123 14 8.625 13.5523 8.625 13C8.625 12.4477 8.26123 12 7.8125 12C7.36377 12 7 12.4477 7 13C7 13.5523 7.36377 14 7.8125 14Z" stroke="white" stroke-width="2" stroke-linecap="round" stroke-linejoin="round"/>
</svg>
