<svg width="20" height="16" viewBox="0 0 20 16" fill="none" xmlns="http://www.w3.org/2000/svg">
<path d="M19.6345 5.34563L16.5994 14.6422C16.5689 14.7359 16.5176 14.8216 16.4495 14.8928C16.3813 14.964 16.298 15.0189 16.2058 15.0535C16.1135 15.0881 16.0146 15.1014 15.9164 15.0926C15.8183 15.0837 15.7234 15.0529 15.6388 15.0023C15.6199 14.9909 13.5224 13.7825 9.84083 13.7825C6.15926 13.7825 4.06172 14.9909 4.04121 15.0032C3.95665 15.0532 3.86191 15.0837 3.76401 15.0922C3.6661 15.1008 3.56752 15.0872 3.47556 15.0526C3.38359 15.0179 3.30057 14.9631 3.23264 14.892C3.16472 14.821 3.11361 14.7357 3.08309 14.6422L0.0495744 5.34317C-0.0115467 5.15702 -0.0162566 4.95695 0.036037 4.76813C0.0883307 4.57931 0.195293 4.41017 0.343469 4.28199C0.491645 4.1538 0.674418 4.07229 0.868799 4.04772C1.06318 4.02314 1.26049 4.0566 1.4359 4.14387L5.55305 6.19465L8.9918 0.480357C9.0802 0.333789 9.20496 0.212547 9.354 0.128386C9.50305 0.0442244 9.6713 0 9.84247 0C10.0136 0 10.1819 0.0442244 10.3309 0.128386C10.48 0.212547 10.6047 0.333789 10.6931 0.480357L14.1319 6.19465L18.2507 4.14387C18.4263 4.05647 18.6239 4.02306 18.8185 4.04787C19.013 4.07268 19.1959 4.15459 19.344 4.28326C19.4921 4.41194 19.5987 4.5816 19.6504 4.77082C19.7021 4.96005 19.6966 5.16036 19.6345 5.34645V5.34563Z" fill="#ED2449"/>
</svg>
