<svg width="21" height="17" viewBox="0 0 21 17" fill="none" xmlns="http://www.w3.org/2000/svg">
<path d="M20.2921 6.31304L17.257 15.6096C17.2264 15.7033 17.1752 15.789 17.1071 15.8602C17.0389 15.9314 16.9556 15.9863 16.8634 16.0209C16.7711 16.0555 16.6722 16.0689 16.574 16.06C16.4759 16.0512 16.381 16.0203 16.2964 15.9698C16.2775 15.9583 14.18 14.75 10.4984 14.75C6.81685 14.75 4.71932 15.9583 4.69881 15.9706C4.61424 16.0206 4.5195 16.0511 4.4216 16.0596C4.32369 16.0682 4.22512 16.0546 4.13315 16.02C4.04118 15.9853 3.95817 15.9305 3.89024 15.8595C3.82231 15.7884 3.7712 15.7031 3.74068 15.6096L0.707167 6.31058C0.646046 6.12443 0.641336 5.92436 0.69363 5.73554C0.745923 5.54672 0.852885 5.37758 1.00106 5.24939C1.14924 5.12121 1.33201 5.0397 1.52639 5.01513C1.72077 4.99055 1.91808 5.02401 2.0935 5.11128L6.21064 7.16206L9.64939 1.44776C9.73779 1.3012 9.86256 1.17995 10.0116 1.09579C10.1606 1.01163 10.3289 0.967407 10.5001 0.967407C10.6712 0.967407 10.8395 1.01163 10.9885 1.09579C11.1376 1.17995 11.2623 1.3012 11.3507 1.44776L14.7895 7.16206L18.9083 5.11128C19.0839 5.02388 19.2815 4.99047 19.476 5.01528C19.6706 5.04009 19.8535 5.122 20.0016 5.25067C20.1497 5.37934 20.2563 5.54901 20.308 5.73823C20.3597 5.92746 20.3542 6.12777 20.2921 6.31386V6.31304Z" fill="#393939"/>
</svg>
