<svg width="26" height="26" viewBox="0 0 26 26" fill="none" xmlns="http://www.w3.org/2000/svg">
<circle cx="13" cy="13" r="13" fill="#F37466"/>
<g clip-path="url(#clip0_343_136)">
<path d="M18 18L17 17M12.75 17.5C13.3738 17.5 13.9915 17.3771 14.5677 17.1384C15.144 16.8997 15.6677 16.5498 16.1088 16.1088C16.5498 15.6677 16.8997 15.144 17.1384 14.5677C17.3771 13.9915 17.5 13.3738 17.5 12.75C17.5 12.1262 17.3771 11.5086 17.1384 10.9323C16.8997 10.356 16.5498 9.83232 16.1088 9.39124C15.6677 8.95016 15.144 8.60028 14.5677 8.36157C13.9915 8.12286 13.3738 8 12.75 8C11.4902 8 10.282 8.50045 9.39124 9.39124C8.50044 10.282 8 11.4902 8 12.75C8 14.0098 8.50044 15.218 9.39124 16.1088C10.282 16.9996 11.4902 17.5 12.75 17.5Z" stroke="white" stroke-width="1.5" stroke-linecap="round" stroke-linejoin="round"/>
</g>
<defs>
<clipPath id="clip0_343_136">
<rect width="12" height="12" fill="white" transform="translate(7 7)"/>
</clipPath>
</defs>
</svg>
