<svg width="10" height="9" viewBox="0 0 10 9" fill="none" xmlns="http://www.w3.org/2000/svg">
<path d="M4.81631 0.426549C4.88573 0.265356 5.11427 0.265356 5.18369 0.426548L6.30493 3.03019C6.33389 3.09742 6.39726 3.14347 6.47015 3.15023L9.29285 3.41203C9.4676 3.42823 9.53823 3.6456 9.40637 3.76143L7.27665 5.63236C7.22165 5.68068 7.19745 5.75518 7.21354 5.82659L7.83682 8.59203C7.8754 8.76324 7.6905 8.89758 7.5396 8.80797L5.10211 7.36063C5.03917 7.32326 4.96083 7.32326 4.89789 7.36063L2.4604 8.80797C2.3095 8.89758 2.1246 8.76324 2.16318 8.59203L2.78646 5.82659C2.80255 5.75518 2.77835 5.68068 2.72335 5.63236L0.593625 3.76143C0.461773 3.6456 0.532399 3.42823 0.707153 3.41203L3.52984 3.15023C3.60274 3.14347 3.66611 3.09742 3.69507 3.03019L4.81631 0.426549Z" fill="#FDBE10"/>
</svg>
