<svg width="17" height="17" viewBox="0 0 17 17" fill="none" xmlns="http://www.w3.org/2000/svg">
<g clip-path="url(#clip0_1105_817)">
<path d="M2.09375 4.1875H3.48958H14.6563" stroke="black" stroke-width="1.39583" stroke-linecap="round" stroke-linejoin="round"/>
<path d="M13.2606 4.18742V13.9583C13.2606 14.3284 13.1135 14.6835 12.8517 14.9453C12.59 15.207 12.2349 15.3541 11.8647 15.3541H4.88558C4.51538 15.3541 4.16035 15.207 3.89858 14.9453C3.63681 14.6835 3.48975 14.3284 3.48975 13.9583V4.18742M5.5835 4.18742V2.79159C5.5835 2.42139 5.73056 2.06635 5.99233 1.80458C6.2541 1.54281 6.60913 1.39575 6.97933 1.39575H9.771C10.1412 1.39575 10.4962 1.54281 10.758 1.80458C11.0198 2.06635 11.1668 2.42139 11.1668 2.79159V4.18742" stroke="black" stroke-width="1.39583" stroke-linecap="round" stroke-linejoin="round"/>
<path d="M6.979 7.677V11.8645" stroke="black" stroke-width="1.39583" stroke-linecap="round" stroke-linejoin="round"/>
<path d="M9.771 7.677V11.8645" stroke="black" stroke-width="1.39583" stroke-linecap="round" stroke-linejoin="round"/>
</g>
<defs>
<clipPath id="clip0_1105_817">
<rect width="16.75" height="16.75" fill="white"/>
</clipPath>
</defs>
</svg>
