<svg width="26" height="26" viewBox="0 0 26 26" fill="none" xmlns="http://www.w3.org/2000/svg">
<circle cx="13" cy="13" r="13" fill="#763DF0"/>
<path d="M7.54169 9.16667V12.4167H10.7917" stroke="white" stroke-linecap="round" stroke-linejoin="round"/>
<path d="M19.4583 17.8333V14.5833H16.2083" stroke="white" stroke-linecap="round" stroke-linejoin="round"/>
<path d="M18.0988 11.875C17.8241 11.0987 17.3572 10.4046 16.7416 9.85752C16.1261 9.31044 15.3821 8.92821 14.5789 8.74647C13.7757 8.56474 12.9395 8.58944 12.1485 8.81825C11.3574 9.04707 10.6372 9.47255 10.055 10.055L7.54169 12.4167M19.4584 14.5833L16.945 16.945C16.3629 17.5274 15.6427 17.9529 14.8516 18.1817C14.0605 18.4106 13.2244 18.4353 12.4212 18.2535C11.618 18.0718 10.8739 17.6896 10.2584 17.1425C9.64288 16.5954 9.17599 15.9013 8.90127 15.125" stroke="white" stroke-linecap="round" stroke-linejoin="round"/>
</svg>
